<svg width="52" height="52" viewBox="0 0 52 52" fill="none" xmlns="http://www.w3.org/2000/svg">
<rect width="52" height="52" rx="16" fill="#D9D9D9"/>
<path d="M36.6667 38V35.3333C36.6667 33.9188 36.1048 32.5623 35.1046 31.5621C34.1044 30.5619 32.7479 30 31.3334 30H20.6667C19.2522 30 17.8957 30.5619 16.8955 31.5621C15.8953 32.5623 15.3334 33.9188 15.3334 35.3333V38" stroke="#00A8CB" stroke-width="2" stroke-linecap="round" stroke-linejoin="round"/>
<path d="M26 24.6667C28.9455 24.6667 31.3333 22.2789 31.3333 19.3333C31.3333 16.3878 28.9455 14 26 14C23.0544 14 20.6666 16.3878 20.6666 19.3333C20.6666 22.2789 23.0544 24.6667 26 24.6667Z" stroke="#00A8CB" stroke-width="2" stroke-linecap="round" stroke-linejoin="round"/>
</svg>
