<svg width="52" height="52" viewBox="0 0 52 52" fill="none" xmlns="http://www.w3.org/2000/svg">
<rect width="52" height="52" rx="16" fill="#D9D9D9"/>
<path d="M41.9814 25.0647C42.0243 24.7211 41.9928 24.3725 41.8889 24.0417C41.785 23.7108 41.611 23.4052 41.3783 23.1447C41.1428 22.8821 40.853 22.6717 40.528 22.5274C40.2031 22.383 39.8505 22.3082 39.4937 22.3077H12.5063C12.1495 22.3082 11.7969 22.383 11.472 22.5274C11.147 22.6717 10.8572 22.8821 10.6217 23.1447C10.389 23.4052 10.215 23.7108 10.1111 24.0417C10.0072 24.3725 9.97568 24.7211 10.0186 25.0647L11.9032 39.8339C11.9773 40.4343 12.2744 40.9869 12.7378 41.3864C13.2013 41.786 13.7987 42.0044 14.416 42H37.6342C38.2516 42.0044 38.849 41.786 39.3124 41.3864C39.7759 40.9869 40.073 40.4343 40.147 39.8339L41.9814 25.0647Z" stroke="#00A8CB" stroke-width="2" stroke-linecap="round" stroke-linejoin="round"/>
<path d="M14.6924 22.3077V21.0769C14.6924 18.1391 15.8837 15.3217 18.0043 13.2443C20.1249 11.167 23.001 10 26 10C28.9989 10 31.875 11.167 33.9956 13.2443C36.1162 15.3217 37.3075 18.1391 37.3075 21.0769V22.3077" stroke="#00A8CB" stroke-width="2" stroke-linecap="round" stroke-linejoin="round"/>
<path d="M20.9744 29.6924V34.6155" stroke="#00A8CB" stroke-width="2" stroke-linecap="round" stroke-linejoin="round"/>
<path d="M31.0255 29.6924V34.6155" stroke="#00A8CB" stroke-width="2" stroke-linecap="round" stroke-linejoin="round"/>
</svg>
