<svg width="52" height="52" viewBox="0 0 52 52" fill="none" xmlns="http://www.w3.org/2000/svg">
<rect width="52" height="52" rx="16" fill="#D9D9D9"/>
<path d="M15.9792 17.4321C15.4324 17.5095 15.0519 18.0156 15.1293 18.5624C15.2068 19.1093 15.7129 19.4898 16.2597 19.4123L15.9792 17.4321ZM21.6987 18.6419C22.2456 18.5644 22.6261 18.0584 22.5486 17.5115C22.4711 16.9647 21.9651 16.5842 21.4182 16.6617L21.6987 18.6419ZM17.2714 24.7284C16.7246 24.8059 16.3441 25.3119 16.4215 25.8588C16.499 26.4056 17.0051 26.7861 17.5519 26.7086L17.2714 24.7284ZM31.1495 24.7826C31.6963 24.7051 32.0768 24.1991 31.9994 23.6522C31.9219 23.1054 31.4158 22.7249 30.869 22.8024L31.1495 24.7826ZM18.1328 29.5926C17.586 29.6701 17.2055 30.1762 17.283 30.723C17.3604 31.2698 17.8665 31.6503 18.4133 31.5729L18.1328 29.5926ZM29.2914 30.032C29.8383 29.9546 30.2188 29.4485 30.1413 28.9017C30.0638 28.3548 29.5578 27.9743 29.0109 28.0518L29.2914 30.032ZM16.8458 38.2643L16.7055 37.2742L16.8458 38.2643ZM13.6955 36.2174L12.7108 36.3918L13.6955 36.2174ZM38.1712 32.7505L37.1865 32.9249L38.1712 32.7505ZM35.8824 35.5678L36.0227 36.5579L35.8824 35.5678ZM31.3598 10.0307L31.2195 9.04056L31.3598 10.0307ZM34.51 12.0776L35.4947 11.9032L34.51 12.0776ZM12.3231 12.7271L12.4633 13.7172L12.3231 12.7271ZM10.0343 15.5444L11.019 15.3701L10.0343 15.5444ZM41 18.607V39.5376H43V18.607H41ZM39.2466 41H19.9726V43H39.2466V41ZM19.9726 41C18.8963 41 18.2192 40.2431 18.2192 39.5376H16.2192C16.2192 41.5519 18.0076 43 19.9726 43V41ZM41 39.5376C41 40.2431 40.3229 41 39.2466 41V43C41.2116 43 43 41.5519 43 39.5376H41ZM39.2466 17.1445C40.3229 17.1445 41 17.9014 41 18.607H43C43 16.5926 41.2116 15.1445 39.2466 15.1445V17.1445ZM18.2192 39.5376V37.0752H16.2192V39.5376H18.2192ZM39.2466 15.1445H35.1164V17.1445H39.2466V15.1445ZM16.2597 19.4123L21.6987 18.6419L21.4182 16.6617L15.9792 17.4321L16.2597 19.4123ZM17.5519 26.7086L31.1495 24.7826L30.869 22.8024L17.2714 24.7284L17.5519 26.7086ZM18.4133 31.5729L29.2914 30.032L29.0109 28.0518L18.1328 29.5926L18.4133 31.5729ZM12.4633 13.7172L31.5 11.0208L31.2195 9.04056L12.1828 11.737L12.4633 13.7172ZM33.5253 12.252L37.1865 32.9249L39.1559 32.5761L35.4947 11.9032L33.5253 12.252ZM35.7422 34.5777L16.7055 37.2742L16.986 39.2544L36.0227 36.5579L35.7422 34.5777ZM14.6802 36.043L11.019 15.3701L9.04962 15.7188L12.7108 36.3918L14.6802 36.043ZM16.7055 37.2742C15.6406 37.425 14.808 36.7647 14.6802 36.043L12.7108 36.3918C13.0588 38.3565 15.047 39.529 16.986 39.2544L16.7055 37.2742ZM37.1865 32.9249C37.3079 33.6101 36.7908 34.4292 35.7422 34.5777L36.0227 36.5579C37.9779 36.281 39.5103 34.5773 39.1559 32.5761L37.1865 32.9249ZM31.5 11.0208C32.5649 10.87 33.3975 11.5303 33.5253 12.252L35.4947 11.9032C35.1467 9.93846 33.1585 8.7659 31.2195 9.04056L31.5 11.0208ZM12.1828 11.737C10.2276 12.014 8.6952 13.7176 9.04962 15.7188L11.019 15.3701C10.8976 14.6849 11.4147 13.8658 12.4633 13.7172L12.1828 11.737Z" fill="#00A8CB"/>
</svg>
