<svg width="52" height="52" viewBox="0 0 52 52" fill="none" xmlns="http://www.w3.org/2000/svg">
<rect width="52" height="52" rx="16" fill="#D9D9D9"/>
<path d="M15.7961 19.8461C15.7961 17.2348 16.8712 14.7304 18.7848 12.8839C20.6984 11.0374 23.2938 10 26 10C28.7062 10 31.3016 11.0374 33.2152 12.8839C35.1288 14.7304 36.2039 17.2348 36.2039 19.8461" stroke="#00A8CB" stroke-width="2" stroke-linecap="round" stroke-linejoin="round"/>
<path d="M36.9181 41.9999H15.1329C14.4129 42.0041 13.7002 41.8613 13.0416 41.5807C12.3829 41.3001 11.7933 40.8883 11.3114 40.3721C10.8295 39.856 10.4663 39.2472 10.2456 38.5859C10.0249 37.9247 9.95176 37.2258 10.031 36.5353L11.7401 22.0369C11.8095 21.432 12.1086 20.8734 12.5797 20.4688C13.0507 20.0643 13.6604 19.8424 14.2911 19.8461H37.7599C38.3906 19.8424 39.0003 20.0643 39.4714 20.4688C39.9425 20.8734 40.2415 21.432 40.3109 22.0369L41.969 36.5353C42.0478 37.2217 41.976 37.9164 41.7583 38.5742C41.5406 39.2321 41.182 39.8384 40.7056 40.3537C40.2293 40.8691 39.6459 41.282 38.9934 41.5656C38.3408 41.8492 37.6338 41.9972 36.9181 41.9999Z" stroke="#00A8CB" stroke-width="2" stroke-linecap="round" stroke-linejoin="round"/>
<path d="M19.6482 27.2307H32.403" stroke="#00A8CB" stroke-width="2" stroke-linecap="round" stroke-linejoin="round"/>
</svg>
