<svg width="47" height="51" viewBox="0 0 47 51" fill="none" xmlns="http://www.w3.org/2000/svg">
<path d="M45.8266 24.2532L24.6336 45.4462C22.0374 48.0426 18.516 49.5012 14.8443 49.5012C11.1725 49.5012 7.6512 48.0426 5.0549 45.4462C2.45858 42.85 1 39.3286 1 35.6568C1 31.985 2.45858 28.4639 5.0549 25.8674L26.2478 4.67444C27.9788 2.94358 30.3264 1.97119 32.7741 1.97119C35.222 1.97119 37.5696 2.94358 39.3003 4.67444C41.0313 6.40533 42.0038 8.75289 42.0038 11.2007C42.0038 13.6485 41.0313 15.9961 39.3003 17.727L18.0844 38.9199C17.2189 39.7854 16.0451 40.2715 14.8212 40.2715C13.5973 40.2715 12.4235 39.7854 11.5581 38.9199C10.6927 38.0545 10.2064 36.8809 10.2064 35.6568C10.2064 34.433 10.6927 33.2592 11.5581 32.3937L31.1368 12.838" stroke="black" stroke-width="2" stroke-linecap="round" stroke-linejoin="round"/>
</svg>
