<svg width="1100" height="253" viewBox="0 0 1100 253" fill="none" xmlns="http://www.w3.org/2000/svg">
<rect width="1100" height="253" fill="#405A6D"/>
<rect x="51" y="49.0457" width="134.733" height="24.9086" rx="5.66104" fill="#FF9061"/>
<path d="M65.1044 53.3495C61.908 53.3495 59.2965 56.0067 59.2965 59.2592C59.2965 60.9056 60.1602 62.4362 61.1455 63.7567C60.1307 64.0742 59.3178 64.5222 58.7375 65.1909C57.755 66.3556 57.981 67.7043 59.0214 68.6338C60.3217 69.8869 62.9955 70.3421 65.1022 70.3495C67.1056 70.3495 69.8896 69.9395 71.3571 68.4866C72.3788 67.4686 72.3467 66.0657 71.3365 65.0316C70.2807 63.9662 68.7102 65.5775 69.7659 66.6429C69.8725 66.7691 69.8142 66.8469 69.7746 66.8886C68.8304 67.7189 66.8093 68.078 65.0979 68.078C63.9311 68.078 61.5968 67.8444 60.5005 66.9395C60.3461 66.7702 60.4439 66.6575 60.4916 66.6094C60.9685 66.1867 62.0083 65.8276 62.8019 65.6724C63.4626 66.3091 64.2816 67.0601 65.1044 67.0601C65.8994 67.0601 66.4061 66.5323 66.9175 66.115C67.4609 65.6406 68.0571 65.0178 68.6315 64.3001C69.7805 62.8647 70.9166 61.1413 70.9166 59.2592C70.9166 55.9418 68.3014 53.3495 65.1044 53.3495ZM65.1044 55.6126C67.097 55.6126 68.6892 57.2316 68.6892 59.2592C68.6892 60.017 67.8962 61.6315 66.9055 62.8691C66.4101 63.488 65.8867 64.0334 65.4709 64.3964C65.1804 64.6368 64.9912 64.6162 64.7303 64.3964C64.3146 64.0346 63.7887 63.4873 63.2957 62.8691C62.3097 61.6327 61.524 60.0217 61.524 59.2592C61.524 57.2316 63.1118 55.6126 65.1044 55.6126Z" fill="white"/>
<path d="M278.44 62.2071C278.83 61.8166 278.83 61.1834 278.44 60.7929L272.076 54.4289C271.685 54.0384 271.052 54.0384 270.662 54.4289C270.271 54.8195 270.271 55.4526 270.662 55.8431L276.319 61.5L270.662 67.1569C270.271 67.5474 270.271 68.1805 270.662 68.5711C271.052 68.9616 271.685 68.9616 272.076 68.5711L278.44 62.2071ZM199.733 62.5H277.733V60.5H199.733V62.5Z" fill="#92A9D8"/>
<rect x="291.733" y="49.0457" width="178.889" height="24.9086" rx="5.66104" fill="#299DB7"/>
<path d="M309.16 55.847C308.912 55.5971 308.617 55.3989 308.292 55.2639C307.966 55.1289 307.617 55.0597 307.265 55.0604H302.666C302.056 55.0604 301.471 55.3027 301.039 55.734C300.608 56.1653 300.366 56.7503 300.366 57.3602V65.6395C300.366 66.2495 300.608 66.8344 301.039 67.2657C301.471 67.697 302.056 67.9393 302.666 67.9393H309.105C309.715 67.9393 310.3 67.697 310.731 67.2657C311.163 66.8344 311.405 66.2495 311.405 65.6395V59.2001C311.403 58.4893 311.121 57.808 310.618 57.305L309.16 55.847ZM307.725 56.0447C307.776 56.0568 307.825 56.0737 307.872 56.0953C307.947 56.1189 308.018 56.1514 308.084 56.1919L308.194 56.2563C308.305 56.3228 308.407 56.4031 308.498 56.4955L309.956 57.9536C310.002 57.9996 310.043 58.0502 310.085 58.1008L310.163 58.2112C310.192 58.2504 310.218 58.2919 310.241 58.3353C310.268 58.3779 310.291 58.4225 310.31 58.4687C310.345 58.5393 310.373 58.6133 310.393 58.6895V58.7401H308.185C308.063 58.7401 307.946 58.6917 307.86 58.6054C307.774 58.5191 307.725 58.4021 307.725 58.2802V56.0401V56.0447ZM309.105 67.0194H302.666C302.3 67.0194 301.949 66.874 301.69 66.6152C301.431 66.3565 301.286 66.0055 301.286 65.6395V57.3602C301.286 56.9943 301.431 56.6433 301.69 56.3845C301.949 56.1257 302.3 55.9804 302.666 55.9804H306.805V58.2802C306.805 58.6461 306.951 58.9971 307.209 59.2559C307.468 59.5147 307.819 59.66 308.185 59.66H310.485V65.6395C310.485 66.0055 310.34 66.3565 310.081 66.6152C309.822 66.874 309.471 67.0194 309.105 67.0194Z" fill="white"/>
<path d="M563.329 62.2071C563.719 61.8166 563.719 61.1834 563.329 60.7929L556.965 54.4289C556.574 54.0384 555.941 54.0384 555.551 54.4289C555.16 54.8195 555.16 55.4526 555.551 55.8431L561.207 61.5L555.551 67.1569C555.16 67.5474 555.16 68.1805 555.551 68.5711C555.941 68.9616 556.574 68.9616 556.965 68.5711L563.329 62.2071ZM484.622 62.5H562.622V60.5H484.622V62.5Z" fill="#92A9D8"/>
<rect x="576.622" y="49.0457" width="134.733" height="24.9086" rx="5.66104" fill="#7B61FF"/>
<path d="M584.653 66.4533C584.653 66.4533 583.769 66.4533 583.769 65.5688C583.769 64.6842 584.653 62.0306 589.076 62.0306C593.498 62.0306 594.383 64.6842 594.383 65.5688C594.383 66.4533 593.498 66.4533 593.498 66.4533H584.653ZM589.076 61.1461C589.78 61.1461 590.455 60.8665 590.952 60.3689C591.45 59.8712 591.729 59.1963 591.729 58.4925C591.729 57.7887 591.45 57.1137 590.952 56.6161C590.455 56.1184 589.78 55.8389 589.076 55.8389C588.372 55.8389 587.697 56.1184 587.199 56.6161C586.702 57.1137 586.422 57.7887 586.422 58.4925C586.422 59.1963 586.702 59.8712 587.199 60.3689C587.697 60.8665 588.372 61.1461 589.076 61.1461Z" fill="white"/>
<rect x="51" y="110.909" width="132.854" height="17.2119" rx="2.68936" fill="#92A9D8"/>
<rect x="51" y="134.037" width="327" height="12" rx="2.68936" fill="#90B7D3"/>
<rect x="382.841" y="134.121" width="29.5829" height="11.8332" rx="2.68936" fill="#90B7D3"/>
<rect x="417.265" y="134.121" width="81.7564" height="11.8332" rx="2.68936" fill="#90B7D3"/>
<rect x="503.862" y="134.121" width="81.7564" height="11.8332" rx="2.68936" fill="#90B7D3"/>
<rect x="51" y="151.954" width="152.218" height="11.8332" rx="2.68936" fill="#90B7D3"/>
<rect x="208.058" y="151.954" width="75.8398" height="11.8332" rx="2.68936" fill="#90B7D3"/>
<rect x="288.739" y="151.954" width="75.8398" height="11.8332" rx="2.68936" fill="#90B7D3"/>
<rect x="369.42" y="151.954" width="143.612" height="11.8332" rx="2.68936" fill="#90B7D3"/>
<rect x="51" y="169.725" width="86.5973" height="11.8332" rx="2.68936" fill="#90B7D3"/>
<rect x="142.438" y="169.704" width="114.965" height="11.8766" rx="2.68936" fill="#90B7D3"/>
<rect x="262.245" y="169.725" width="143.612" height="11.8332" rx="2.68936" fill="#90B7D3"/>
<rect x="51" y="187.497" width="86.5973" height="11.8332" rx="2.68936" fill="#90B7D3"/>
<rect x="142.438" y="187.497" width="28.5072" height="11.8332" rx="2.68936" fill="#90B7D3"/>
<rect x="175.786" y="187.497" width="59.7037" height="11.8332" rx="2.68936" fill="#90B7D3"/>
<rect x="240.331" y="187.497" width="59.7037" height="11.8332" rx="2.68936" fill="#90B7D3"/>
<rect x="304.875" y="187.497" width="143.612" height="11.8332" rx="2.68936" fill="#90B7D3"/>
</svg>
