<svg width="1100" height="253" viewBox="0 0 1100 253" fill="none" xmlns="http://www.w3.org/2000/svg">
<rect width="1100" height="253" fill="#405A6D"/>
<path d="M445.5 105L338.5 37.5L303.5 105H445.5ZM445.5 105L513.5 150L537 218M445.5 105L461.5 184L537 218M537 218L668 76M668 76L774.5 134L705.5 164.5L668 76ZM668 76L655.5 164.5" stroke="white"/>
<rect x="428" y="87" width="35" height="35" rx="17.5" fill="#FF9061"/>
<path d="M445.496 96C442.299 96 439.688 98.6572 439.688 101.91C439.688 103.556 440.551 105.087 441.537 106.407C440.522 106.725 439.709 107.173 439.129 107.841C438.146 109.006 438.372 110.355 439.412 111.284C440.713 112.537 443.387 112.993 445.493 113C447.497 113 450.281 112.59 451.748 111.137C452.77 110.119 452.738 108.716 451.728 107.682C450.672 106.617 449.101 108.228 450.157 109.293C450.264 109.42 450.205 109.497 450.166 109.539C449.221 110.369 447.2 110.729 445.489 110.729C444.322 110.729 441.988 110.495 440.892 109.59C440.737 109.421 440.835 109.308 440.883 109.26C441.36 108.837 442.399 108.478 443.193 108.323C443.854 108.96 444.673 109.711 445.496 109.711C446.29 109.711 446.797 109.183 447.309 108.766C447.852 108.291 448.448 107.668 449.023 106.951C450.172 105.515 451.308 103.792 451.308 101.91C451.308 98.5923 448.693 96 445.496 96ZM445.496 98.2632C447.488 98.2632 449.08 99.8821 449.08 101.91C449.08 102.668 448.287 104.282 447.297 105.52C446.801 106.138 446.278 106.684 445.862 107.047C445.572 107.287 445.382 107.267 445.121 107.047C444.706 106.685 444.18 106.138 443.687 105.52C442.701 104.283 441.915 102.672 441.915 101.91C441.915 99.8821 443.503 98.2632 445.496 98.2632Z" fill="white"/>
<rect x="758" y="116" width="33" height="34" rx="16.5" fill="#FF9061"/>
<path d="M774.496 124.5C771.299 124.5 768.688 127.157 768.688 130.41C768.688 132.056 769.551 133.587 770.537 134.907C769.522 135.225 768.709 135.673 768.129 136.341C767.146 137.506 767.372 138.855 768.412 139.784C769.713 141.037 772.387 141.493 774.493 141.5C776.497 141.5 779.281 141.09 780.748 139.637C781.77 138.619 781.738 137.216 780.728 136.182C779.672 135.117 778.101 136.728 779.157 137.793C779.264 137.92 779.205 137.997 779.166 138.039C778.221 138.869 776.2 139.229 774.489 139.229C773.322 139.229 770.988 138.995 769.892 138.09C769.737 137.921 769.835 137.808 769.883 137.76C770.36 137.337 771.399 136.978 772.193 136.823C772.854 137.46 773.673 138.211 774.496 138.211C775.29 138.211 775.797 137.683 776.309 137.266C776.852 136.791 777.448 136.168 778.023 135.451C779.172 134.015 780.308 132.292 780.308 130.41C780.308 127.092 777.693 124.5 774.496 124.5ZM774.496 126.763C776.488 126.763 778.08 128.382 778.08 130.41C778.08 131.168 777.287 132.782 776.297 134.02C775.801 134.638 775.278 135.184 774.862 135.547C774.572 135.787 774.382 135.767 774.121 135.547C773.706 135.185 773.18 134.638 772.687 134.02C771.701 132.783 770.915 131.172 770.915 130.41C770.915 128.382 772.503 126.763 774.496 126.763Z" fill="white"/>
<rect x="287" y="87" width="34" height="35" rx="17" fill="#299DB7"/>
<path d="M307.275 98.8471C307.027 98.5972 306.731 98.399 306.406 98.264C306.081 98.129 305.732 98.0598 305.38 98.0606H300.78C300.17 98.0606 299.585 98.3029 299.154 98.7341C298.723 99.1654 298.48 99.7504 298.48 100.36V108.64C298.48 109.25 298.723 109.835 299.154 110.266C299.585 110.697 300.17 110.939 300.78 110.939H307.22C307.83 110.939 308.415 110.697 308.846 110.266C309.277 109.835 309.52 109.25 309.52 108.64V102.2C309.518 101.489 309.235 100.808 308.733 100.305L307.275 98.8471ZM305.84 99.0449C305.89 99.0569 305.94 99.0738 305.987 99.0955C306.061 99.1191 306.132 99.1515 306.199 99.1921L306.309 99.2564C306.42 99.3229 306.522 99.4033 306.613 99.4956L308.071 100.954C308.117 101 308.158 101.05 308.199 101.101L308.278 101.211C308.307 101.251 308.333 101.292 308.356 101.335C308.382 101.378 308.405 101.423 308.425 101.469C308.46 101.539 308.488 101.613 308.508 101.69V101.74H306.3C306.178 101.74 306.061 101.692 305.975 101.606C305.888 101.519 305.84 101.402 305.84 101.28V99.0403V99.0449ZM307.22 110.02H300.78C300.414 110.02 300.063 109.874 299.805 109.615C299.546 109.357 299.4 109.006 299.4 108.64V100.36C299.4 99.9944 299.546 99.6434 299.805 99.3846C300.063 99.1259 300.414 98.9805 300.78 98.9805H304.92V101.28C304.92 101.646 305.065 101.997 305.324 102.256C305.583 102.515 305.934 102.66 306.3 102.66H308.6V108.64C308.6 109.006 308.454 109.357 308.195 109.615C307.937 109.874 307.586 110.02 307.22 110.02Z" fill="white"/>
<rect x="495" y="131" width="34" height="34" rx="17" fill="#299DB7"/>
<path d="M515.275 142.347C515.027 142.097 514.731 141.899 514.406 141.764C514.081 141.629 513.732 141.56 513.38 141.561H508.78C508.17 141.561 507.585 141.803 507.154 142.234C506.723 142.665 506.48 143.25 506.48 143.86V152.14C506.48 152.75 506.723 153.335 507.154 153.766C507.585 154.197 508.17 154.439 508.78 154.439H515.22C515.83 154.439 516.415 154.197 516.846 153.766C517.277 153.335 517.52 152.75 517.52 152.14V145.7C517.518 144.989 517.235 144.308 516.733 143.805L515.275 142.347ZM513.84 142.545C513.89 142.557 513.94 142.574 513.987 142.595C514.061 142.619 514.132 142.651 514.199 142.692L514.309 142.756C514.42 142.823 514.522 142.903 514.613 142.996L516.071 144.454C516.117 144.5 516.158 144.55 516.199 144.601L516.278 144.711C516.307 144.751 516.333 144.792 516.356 144.835C516.382 144.878 516.405 144.923 516.425 144.969C516.46 145.039 516.488 145.113 516.508 145.19V145.24H514.3C514.178 145.24 514.061 145.192 513.975 145.106C513.888 145.019 513.84 144.902 513.84 144.78V142.54V142.545ZM515.22 153.52H508.78C508.414 153.52 508.063 153.374 507.805 153.115C507.546 152.857 507.4 152.506 507.4 152.14V143.86C507.4 143.494 507.546 143.143 507.805 142.885C508.063 142.626 508.414 142.48 508.78 142.48H512.92V144.78C512.92 145.146 513.065 145.497 513.324 145.756C513.583 146.015 513.934 146.16 514.3 146.16H516.6V152.14C516.6 152.506 516.454 152.857 516.195 153.115C515.937 153.374 515.586 153.52 515.22 153.52Z" fill="white"/>
<rect x="445" y="167" width="34" height="34" rx="17" fill="#299DB7"/>
<path d="M465.275 178.347C465.027 178.097 464.731 177.899 464.406 177.764C464.081 177.629 463.732 177.56 463.38 177.561H458.78C458.17 177.561 457.585 177.803 457.154 178.234C456.723 178.665 456.48 179.25 456.48 179.86V188.14C456.48 188.75 456.723 189.335 457.154 189.766C457.585 190.197 458.17 190.439 458.78 190.439H465.22C465.83 190.439 466.415 190.197 466.846 189.766C467.277 189.335 467.52 188.75 467.52 188.14V181.7C467.518 180.989 467.235 180.308 466.733 179.805L465.275 178.347ZM463.84 178.545C463.89 178.557 463.94 178.574 463.987 178.595C464.061 178.619 464.132 178.651 464.199 178.692L464.309 178.756C464.42 178.823 464.522 178.903 464.613 178.996L466.071 180.454C466.117 180.5 466.158 180.55 466.199 180.601L466.278 180.711C466.307 180.751 466.333 180.792 466.356 180.835C466.382 180.878 466.405 180.923 466.425 180.969C466.46 181.039 466.488 181.113 466.508 181.19V181.24H464.3C464.178 181.24 464.061 181.192 463.975 181.106C463.888 181.019 463.84 180.902 463.84 180.78V178.54V178.545ZM465.22 189.52H458.78C458.414 189.52 458.063 189.374 457.805 189.115C457.546 188.857 457.4 188.506 457.4 188.14V179.86C457.4 179.494 457.546 179.143 457.805 178.885C458.063 178.626 458.414 178.48 458.78 178.48H462.92V180.78C462.92 181.146 463.065 181.497 463.324 181.756C463.583 182.015 463.934 182.16 464.3 182.16H466.6V188.14C466.6 188.506 466.454 188.857 466.195 189.115C465.937 189.374 465.586 189.52 465.22 189.52Z" fill="white"/>
<rect x="588" y="127" width="34" height="34" rx="17" fill="#299DB7"/>
<path d="M608.275 138.347C608.027 138.097 607.731 137.899 607.406 137.764C607.081 137.629 606.732 137.56 606.38 137.561H601.78C601.17 137.561 600.585 137.803 600.154 138.234C599.723 138.665 599.48 139.25 599.48 139.86V148.14C599.48 148.75 599.723 149.335 600.154 149.766C600.585 150.197 601.17 150.439 601.78 150.439H608.22C608.83 150.439 609.415 150.197 609.846 149.766C610.277 149.335 610.519 148.75 610.519 148.14V141.7C610.518 140.989 610.235 140.308 609.733 139.805L608.275 138.347ZM606.84 138.545C606.89 138.557 606.94 138.574 606.987 138.595C607.061 138.619 607.132 138.651 607.199 138.692L607.309 138.756C607.42 138.823 607.522 138.903 607.613 138.996L609.071 140.454C609.117 140.5 609.158 140.55 609.199 140.601L609.278 140.711C609.307 140.751 609.333 140.792 609.356 140.835C609.382 140.878 609.405 140.923 609.425 140.969C609.46 141.039 609.488 141.113 609.508 141.19V141.24H607.3C607.178 141.24 607.061 141.192 606.975 141.106C606.888 141.019 606.84 140.902 606.84 140.78V138.54V138.545ZM608.22 149.52H601.78C601.414 149.52 601.063 149.374 600.805 149.115C600.546 148.857 600.4 148.506 600.4 148.14V139.86C600.4 139.494 600.546 139.143 600.805 138.885C601.063 138.626 601.414 138.48 601.78 138.48H605.92V140.78C605.92 141.146 606.065 141.497 606.324 141.756C606.583 142.015 606.934 142.16 607.3 142.16H609.6V148.14C609.6 148.506 609.454 148.857 609.195 149.115C608.937 149.374 608.586 149.52 608.22 149.52Z" fill="white"/>
<rect x="639" y="148" width="34" height="34" rx="17" fill="#299DB7"/>
<path d="M659.275 159.347C659.027 159.097 658.731 158.899 658.406 158.764C658.081 158.629 657.732 158.56 657.38 158.561H652.78C652.17 158.561 651.585 158.803 651.154 159.234C650.723 159.665 650.48 160.25 650.48 160.86V169.14C650.48 169.75 650.723 170.335 651.154 170.766C651.585 171.197 652.17 171.439 652.78 171.439H659.22C659.83 171.439 660.415 171.197 660.846 170.766C661.277 170.335 661.519 169.75 661.519 169.14V162.7C661.518 161.989 661.235 161.308 660.733 160.805L659.275 159.347ZM657.84 159.545C657.89 159.557 657.94 159.574 657.987 159.595C658.061 159.619 658.132 159.651 658.199 159.692L658.309 159.756C658.42 159.823 658.522 159.903 658.613 159.996L660.071 161.454C660.117 161.5 660.158 161.55 660.199 161.601L660.278 161.711C660.307 161.751 660.333 161.792 660.356 161.835C660.382 161.878 660.405 161.923 660.425 161.969C660.46 162.039 660.488 162.113 660.508 162.19V162.24H658.3C658.178 162.24 658.061 162.192 657.975 162.106C657.888 162.019 657.84 161.902 657.84 161.78V159.54V159.545ZM659.22 170.52H652.78C652.414 170.52 652.063 170.374 651.805 170.115C651.546 169.857 651.4 169.506 651.4 169.14V160.86C651.4 160.494 651.546 160.143 651.805 159.885C652.063 159.626 652.414 159.48 652.78 159.48H656.92V161.78C656.92 162.146 657.065 162.497 657.324 162.756C657.583 163.015 657.934 163.16 658.3 163.16H660.6V169.14C660.6 169.506 660.454 169.857 660.195 170.115C659.937 170.374 659.586 170.52 659.22 170.52Z" fill="white"/>
<rect x="689" y="148" width="34" height="34" rx="17" fill="#299DB7"/>
<path d="M709.275 159.347C709.027 159.097 708.731 158.899 708.406 158.764C708.081 158.629 707.732 158.56 707.38 158.561H702.78C702.17 158.561 701.585 158.803 701.154 159.234C700.723 159.665 700.48 160.25 700.48 160.86V169.14C700.48 169.75 700.723 170.335 701.154 170.766C701.585 171.197 702.17 171.439 702.78 171.439H709.22C709.83 171.439 710.415 171.197 710.846 170.766C711.277 170.335 711.519 169.75 711.519 169.14V162.7C711.518 161.989 711.235 161.308 710.733 160.805L709.275 159.347ZM707.84 159.545C707.89 159.557 707.94 159.574 707.987 159.595C708.061 159.619 708.132 159.651 708.199 159.692L708.309 159.756C708.42 159.823 708.522 159.903 708.613 159.996L710.071 161.454C710.117 161.5 710.158 161.55 710.199 161.601L710.278 161.711C710.307 161.751 710.333 161.792 710.356 161.835C710.382 161.878 710.405 161.923 710.425 161.969C710.46 162.039 710.488 162.113 710.508 162.19V162.24H708.3C708.178 162.24 708.061 162.192 707.975 162.106C707.888 162.019 707.84 161.902 707.84 161.78V159.54V159.545ZM709.22 170.52H702.78C702.414 170.52 702.063 170.374 701.805 170.115C701.546 169.857 701.4 169.506 701.4 169.14V160.86C701.4 160.494 701.546 160.143 701.805 159.885C702.063 159.626 702.414 159.48 702.78 159.48H706.92V161.78C706.92 162.146 707.065 162.497 707.324 162.756C707.583 163.015 707.934 163.16 708.3 163.16H710.6V169.14C710.6 169.506 710.454 169.857 710.195 170.115C709.937 170.374 709.586 170.52 709.22 170.52Z" fill="white"/>
<rect x="520" y="200" width="35" height="34" rx="17" fill="#7B61FF"/>
<path d="M533.077 221.953C533.077 221.953 532.193 221.953 532.193 221.069C532.193 220.184 533.077 217.531 537.5 217.531C541.923 217.531 542.807 220.184 542.807 221.069C542.807 221.953 541.923 221.953 541.923 221.953H533.077ZM537.5 216.646C538.204 216.646 538.879 216.367 539.376 215.869C539.874 215.371 540.154 214.696 540.154 213.993C540.154 213.289 539.874 212.614 539.376 212.116C538.879 211.619 538.204 211.339 537.5 211.339C536.796 211.339 536.121 211.619 535.624 212.116C535.126 212.614 534.846 213.289 534.846 213.993C534.846 214.696 535.126 215.371 535.624 215.869C536.121 216.367 536.796 216.646 537.5 216.646Z" fill="white"/>
<rect x="321" y="19" width="35" height="35" rx="17.5" fill="#7B61FF"/>
<path d="M334.077 41.4534C334.077 41.4534 333.193 41.4534 333.193 40.5689C333.193 39.6844 334.077 37.0308 338.5 37.0308C342.923 37.0308 343.807 39.6844 343.807 40.5689C343.807 41.4534 342.923 41.4534 342.923 41.4534H334.077ZM338.5 36.1462C339.204 36.1462 339.879 35.8666 340.376 35.369C340.874 34.8713 341.154 34.1964 341.154 33.4926C341.154 32.7888 340.874 32.1139 340.376 31.6162C339.879 31.1186 339.204 30.839 338.5 30.839C337.796 30.839 337.121 31.1186 336.624 31.6162C336.126 32.1139 335.846 32.7888 335.846 33.4926C335.846 34.1964 336.126 34.8713 336.624 35.369C337.121 35.8666 337.796 36.1462 338.5 36.1462Z" fill="white"/>
<rect x="650" y="59" width="35" height="34" rx="17" fill="#7B61FF"/>
<path d="M663.077 80.9534C663.077 80.9534 662.193 80.9534 662.193 80.0689C662.193 79.1844 663.077 76.5308 667.5 76.5308C671.923 76.5308 672.807 79.1844 672.807 80.0689C672.807 80.9534 671.923 80.9534 671.923 80.9534H663.077ZM667.5 75.6462C668.204 75.6462 668.879 75.3666 669.376 74.869C669.874 74.3713 670.154 73.6964 670.154 72.9926C670.154 72.2888 669.874 71.6139 669.376 71.1162C668.879 70.6186 668.204 70.339 667.5 70.339C666.796 70.339 666.121 70.6186 665.624 71.1162C665.126 71.6139 664.846 72.2888 664.846 72.9926C664.846 73.6964 665.126 74.3713 665.624 74.869C666.121 75.3666 666.796 75.6462 667.5 75.6462Z" fill="white"/>
</svg>
