<svg width="50" height="48" viewBox="0 0 50 48" fill="none" xmlns="http://www.w3.org/2000/svg">
<path d="M16.8435 46.7421H11.5623C5.72892 46.7421 1 42.0131 1 36.1798V19.5642C1 15.8707 2.92924 12.4455 6.08785 10.5312L19.2908 2.52945C22.6557 0.490182 26.8748 0.490182 30.2397 2.52945L43.4426 10.5312C46.6013 12.4455 48.5305 15.8707 48.5305 19.5642V36.1798C48.5305 42.0131 43.8015 46.7421 37.9682 46.7421H32.687M16.8435 46.7421V36.1798C16.8435 31.8046 20.3901 28.258 24.7653 28.258C29.1405 28.258 32.687 31.8046 32.687 36.1798V46.7421M16.8435 46.7421H32.687" stroke="black" stroke-width="2" stroke-linecap="round" stroke-linejoin="round"/>
</svg>
