<svg width="50" height="42" viewBox="0 0 50 42" fill="none" xmlns="http://www.w3.org/2000/svg">
<path d="M47.9238 20.1857V7.15126C47.9238 4.27178 45.5896 1.9375 42.7101 1.9375H6.21376C3.33428 1.9375 1 4.27178 1 7.15126V22.7925C1 25.6721 3.33428 28.0063 6.21376 28.0063H24.4619" stroke="black" stroke-width="2" stroke-linecap="round" stroke-linejoin="round"/>
<path fill-rule="evenodd" clip-rule="evenodd" d="M47.608 30.3978C48.8953 31.1895 48.8161 33.1168 47.4902 33.2672L40.7994 34.0255L37.7983 40.0534C37.2037 41.2479 35.3656 40.6632 35.0616 39.1827L31.7892 23.2391C31.5324 21.9878 32.6571 21.2002 33.7449 21.8697L47.608 30.3978Z" stroke="black" stroke-width="2"/>
<path d="M24.4619 14.9977L24.488 14.9688" stroke="black" stroke-width="2" stroke-linecap="round" stroke-linejoin="round"/>
<path d="M34.8894 14.9977L34.9155 14.9688" stroke="black" stroke-width="2" stroke-linecap="round" stroke-linejoin="round"/>
<path d="M14.0344 14.9977L14.0605 14.9688" stroke="black" stroke-width="2" stroke-linecap="round" stroke-linejoin="round"/>
</svg>
