<svg width="37" height="42" viewBox="0 0 37 42" fill="none" xmlns="http://www.w3.org/2000/svg">
<path d="M2.85414 0.739136H24.7023L36.2827 12.2345V39.1766C36.2827 39.8563 36.0118 40.508 35.5296 40.9886C35.0473 41.4692 34.3933 41.7391 33.7113 41.7391H2.85414C2.17216 41.7391 1.51811 41.4692 1.03587 40.9886C0.553632 40.508 0.282715 39.8563 0.282715 39.1766V3.30164C0.282715 2.62202 0.553632 1.97024 1.03587 1.48967C1.51811 1.00911 2.17216 0.739136 2.85414 0.739136Z" fill="white"/>
<path d="M36.2454 12.2704H27.2827C26.6007 12.2704 25.9467 12.0004 25.4644 11.5198C24.9822 11.0393 24.7113 10.3875 24.7113 9.70788V0.764756L36.2454 12.2704Z" fill="#D6E4FF"/>
<path d="M26.6373 20.1667C27.068 20.1667 27.2789 19.7926 27.2789 19.43C27.2789 19.0546 27.059 18.692 26.6373 18.692H24.1841C23.7046 18.692 23.4371 19.0879 23.4371 19.5248V25.5326C23.4371 26.0682 23.7431 26.3654 24.1571 26.3654C24.5686 26.3654 24.8759 26.0682 24.8759 25.5326V23.8836H26.3596C26.8199 23.8836 27.05 23.5082 27.05 23.1354C27.05 22.7702 26.8199 22.4076 26.3596 22.4076H24.8759V20.1667H26.6373ZM18.3457 18.692H16.5509C16.0636 18.692 15.7177 19.0251 15.7177 19.5197V25.5377C15.7177 26.1514 16.2153 26.3436 16.5714 26.3436H18.455C20.6844 26.3436 22.1566 24.8817 22.1566 22.6255C22.1553 20.2398 20.7693 18.692 18.3457 18.692ZM18.4319 24.8599H17.3377V20.1757H18.3239C19.8166 20.1757 20.4659 21.1738 20.4659 22.5511C20.4659 23.8401 19.8281 24.8599 18.4319 24.8599ZM11.8567 18.692H10.0786C9.57586 18.692 9.29557 19.0226 9.29557 19.5248V25.5326C9.29557 26.0682 9.617 26.3654 10.049 26.3654C10.481 26.3654 10.8024 26.0682 10.8024 25.5326V23.7786H11.9171C13.2929 23.7786 14.4281 22.8074 14.4281 21.2455C14.4281 19.717 13.3327 18.692 11.8567 18.692ZM11.8271 22.3692H10.8024V20.1027H11.8271C12.4597 20.1027 12.8621 20.5947 12.8621 21.2366C12.8609 21.8772 12.4597 22.3692 11.8271 22.3692Z" fill="#4785FF"/>
</svg>
