<svg width="50" height="51" viewBox="0 0 50 51" fill="none" xmlns="http://www.w3.org/2000/svg">
<path d="M24.7653 32.6669C28.703 32.6669 31.8949 29.475 31.8949 25.5373C31.8949 21.5996 28.703 18.4077 24.7653 18.4077C20.8277 18.4077 17.6357 21.5996 17.6357 25.5373C17.6357 29.475 20.8277 32.6669 24.7653 32.6669Z" stroke="black" stroke-width="2" stroke-linecap="round" stroke-linejoin="round"/>
<path d="M42.8801 21.7239L40.2714 15.4246L43.7775 11.2781L39.0244 6.52503L34.9004 10.0493L28.4674 7.40372L26.988 1.77197H22.3436L20.8419 7.47832L14.5567 10.1277L10.5061 6.52503L5.75305 11.2781L9.20703 15.5293L6.63831 21.8448L1 23.1607V27.9138L6.7063 29.4716L9.35527 35.7556L5.75305 39.7964L10.5061 44.5494L14.7628 41.0804L20.9557 43.6281L22.3887 49.3025H27.1418L28.5784 43.6302L34.8776 41.0215C35.9276 41.772 39.0244 44.5494 39.0244 44.5494L43.7775 39.7964L40.2505 35.636L42.8599 29.3349L48.5303 27.8596L48.5305 23.1607L42.8801 21.7239Z" stroke="black" stroke-width="2" stroke-linecap="round" stroke-linejoin="round"/>
</svg>
