<svg width="47" height="47" viewBox="0 0 47 47" fill="none" xmlns="http://www.w3.org/2000/svg">
<path d="M45.0417 7.83337V19.5834H33.2917" stroke="#181818" stroke-width="2" stroke-linecap="round" stroke-linejoin="round"/>
<path d="M1.95831 39.1666V27.4166H13.7083" stroke="#181818" stroke-width="2" stroke-linecap="round" stroke-linejoin="round"/>
<path d="M6.87373 17.625C7.86693 14.8183 9.55495 12.3089 11.7803 10.331C14.0056 8.35315 16.6957 6.97121 19.5995 6.31418C22.5034 5.65714 25.5264 5.74642 28.3864 6.57369C31.2464 7.40095 33.8503 8.93924 35.955 11.045L45.0416 19.5833M1.95831 27.4167L11.045 35.955C13.1497 38.0608 15.7535 39.5991 18.6136 40.4263C21.4736 41.2536 24.4966 41.3429 27.4004 40.6858C30.3043 40.0288 32.9944 38.6469 35.2197 36.669C37.445 34.6911 39.133 32.1817 40.1262 29.375" stroke="#181818" stroke-linecap="round" stroke-linejoin="round"/>
</svg>
